<svg xmlns="http://www.w3.org/2000/svg" width="127.086" height="131.074" viewBox="0 0 127.086 131.074">
  <g id="Group_971" data-name="Group 971" transform="translate(-316.027 -171.205)">
    <path id="Path_463" data-name="Path 463" d="M430.351,218.976h-8.915v-8.915H409.445v8.915h-8.916v11.989h8.916v8.916h11.991v-8.916h8.915Z" transform="translate(-14.182 -6.521)" fill="#fff"/>
    <path id="Path_464" data-name="Path 464" d="M423.479,177.778c-.583-.242-1.19-.427-1.781-.612-.85-.268-1.706-.5-2.564-.714a7.485,7.485,0,1,0-1.047,6.6q.81.216,1.615.468c.39.122.778.251,1.18.389l.24.1a36.03,36.03,0,1,1-46.246,21.85c.243-.688.459-1.243.679-1.748l.062-.148c.1-.265.216-.524.325-.771.2-.446.408-.885.622-1.321a7.493,7.493,0,1,0-5.282-4.269c-.508.945-.989,1.907-1.428,2.9-.147.332-.3.672-.429,1.019-.275.634-.538,1.311-.826,2.123a42.69,42.69,0,1,0,54.879-25.855Z" transform="translate(-8.412)" fill="#fff"/>
    <path id="Path_465" data-name="Path 465" d="M420.693,266.535l-6.554,1.165a49.626,49.626,0,0,1-.677,17.336c-2.67,11.887-9.643,20.058-20.727,24.287-11.184,4.266-22.9,2.665-34.821-4.759a68.1,68.1,0,0,1-12.151-9.777,17.107,17.107,0,1,0-5.271,4.143,74.693,74.693,0,0,0,13.727,11.175c8.66,5.431,17.52,8.173,26.188,8.173a41.039,41.039,0,0,0,14.7-2.735C426.888,303.418,420.759,266.9,420.693,266.535Zm-97.592,20.2a10.225,10.225,0,1,1,12.69,6.932A10.236,10.236,0,0,1,323.1,286.738Z" transform="translate(0 -15.999)" fill="#fff"/>
  </g>
</svg>
